<mxfile host="app.diagrams.net" modified="2024-06-03T16:24:49.324Z" agent="Mozilla/5.0 (Windows NT 10.0; Win64; x64) AppleWebKit/537.36 (KHTML, like Gecko) Chrome/125.0.0.0 Safari/537.36 Edg/125.0.0.0" etag="nEPnZm0caxErkNoQN7eB" version="24.4.13" type="github">
  <diagram name="Page-1" id="l25IbtfRcPJmLhR0etrx">
    <mxGraphModel dx="2019" dy="93" grid="1" gridSize="10" guides="1" tooltips="1" connect="1" arrows="1" fold="1" page="1" pageScale="1" pageWidth="850" pageHeight="1100" math="0" shadow="0">
      <root>
        <mxCell id="0" />
        <mxCell id="1" parent="0" />
        <mxCell id="h0xq7Wj6VVmjifHu8aRl-1" style="edgeStyle=orthogonalEdgeStyle;rounded=0;orthogonalLoop=1;jettySize=auto;html=1;textShadow=1;" edge="1" parent="1" target="h0xq7Wj6VVmjifHu8aRl-2">
          <mxGeometry relative="1" as="geometry">
            <mxPoint x="314.6" y="1484" as="sourcePoint" />
          </mxGeometry>
        </mxCell>
        <mxCell id="h0xq7Wj6VVmjifHu8aRl-2" value="" style="sketch=0;pointerEvents=1;shadow=0;dashed=0;html=1;strokeColor=none;fillColor=#000000;labelPosition=center;verticalLabelPosition=bottom;verticalAlign=top;outlineConnect=0;align=center;shape=mxgraph.office.concepts.document;textShadow=1;" vertex="1" parent="1">
          <mxGeometry x="359.99999999999994" y="1461" width="40" height="47" as="geometry" />
        </mxCell>
        <mxCell id="h0xq7Wj6VVmjifHu8aRl-3" value="&lt;font face=&quot;JetBrains Mono&quot;&gt;10 am&lt;/font&gt;" style="sketch=0;pointerEvents=1;shadow=0;dashed=0;html=1;strokeColor=none;fillColor=#505050;labelPosition=center;verticalLabelPosition=bottom;verticalAlign=top;outlineConnect=0;align=center;shape=mxgraph.office.concepts.clock;textShadow=1;" vertex="1" parent="1">
          <mxGeometry x="413.1" y="1416" width="45" height="45" as="geometry" />
        </mxCell>
        <mxCell id="h0xq7Wj6VVmjifHu8aRl-4" style="edgeStyle=orthogonalEdgeStyle;rounded=0;orthogonalLoop=1;jettySize=auto;html=1;textShadow=1;" edge="1" parent="1" target="h0xq7Wj6VVmjifHu8aRl-5">
          <mxGeometry relative="1" as="geometry">
            <mxPoint x="319.6" y="1608" as="sourcePoint" />
          </mxGeometry>
        </mxCell>
        <mxCell id="h0xq7Wj6VVmjifHu8aRl-5" value="" style="sketch=0;pointerEvents=1;shadow=0;dashed=0;html=1;strokeColor=none;fillColor=#000000;labelPosition=center;verticalLabelPosition=bottom;verticalAlign=top;outlineConnect=0;align=center;shape=mxgraph.office.concepts.document;textShadow=1;" vertex="1" parent="1">
          <mxGeometry x="364.99999999999994" y="1585" width="40" height="47" as="geometry" />
        </mxCell>
        <mxCell id="h0xq7Wj6VVmjifHu8aRl-6" value="&lt;font face=&quot;JetBrains Mono&quot;&gt;10:30 am&lt;/font&gt;" style="sketch=0;pointerEvents=1;shadow=0;dashed=0;html=1;strokeColor=none;fillColor=#505050;labelPosition=center;verticalLabelPosition=bottom;verticalAlign=top;outlineConnect=0;align=center;shape=mxgraph.office.concepts.clock;textShadow=1;" vertex="1" parent="1">
          <mxGeometry x="418.1" y="1540" width="45" height="45" as="geometry" />
        </mxCell>
        <mxCell id="h0xq7Wj6VVmjifHu8aRl-7" value="" style="edgeStyle=orthogonalEdgeStyle;rounded=0;orthogonalLoop=1;jettySize=auto;html=1;textShadow=1;" edge="1" parent="1" source="h0xq7Wj6VVmjifHu8aRl-8">
          <mxGeometry relative="1" as="geometry">
            <mxPoint x="610" y="1593.5" as="targetPoint" />
          </mxGeometry>
        </mxCell>
        <mxCell id="h0xq7Wj6VVmjifHu8aRl-8" value="" style="sketch=0;pointerEvents=1;shadow=0;dashed=0;html=1;strokeColor=none;fillColor=#000000;labelPosition=center;verticalLabelPosition=bottom;verticalAlign=top;outlineConnect=0;align=center;shape=mxgraph.office.concepts.document;textShadow=1;" vertex="1" parent="1">
          <mxGeometry x="521" y="1570" width="40" height="47" as="geometry" />
        </mxCell>
        <mxCell id="h0xq7Wj6VVmjifHu8aRl-9" value="" style="sketch=0;outlineConnect=0;fontColor=#232F3E;gradientColor=none;fillColor=#232F3D;strokeColor=none;dashed=0;verticalLabelPosition=bottom;verticalAlign=top;align=center;html=1;fontSize=12;fontStyle=0;aspect=fixed;pointerEvents=1;shape=mxgraph.aws4.question;textShadow=1;" vertex="1" parent="1">
          <mxGeometry x="561" y="1549" width="18.92" height="36" as="geometry" />
        </mxCell>
        <mxCell id="h0xq7Wj6VVmjifHu8aRl-10" value="" style="sketch=0;pointerEvents=1;shadow=0;dashed=0;html=1;strokeColor=none;fillColor=#505050;labelPosition=center;verticalLabelPosition=bottom;verticalAlign=top;outlineConnect=0;align=center;shape=mxgraph.office.users.users;textShadow=1;" vertex="1" parent="1">
          <mxGeometry x="270" y="1580" width="53" height="52" as="geometry" />
        </mxCell>
        <mxCell id="h0xq7Wj6VVmjifHu8aRl-11" value="" style="sketch=0;pointerEvents=1;shadow=0;dashed=0;html=1;strokeColor=none;fillColor=#505050;labelPosition=center;verticalLabelPosition=bottom;verticalAlign=top;outlineConnect=0;align=center;shape=mxgraph.office.users.users;textShadow=1;" vertex="1" parent="1">
          <mxGeometry x="263.1" y="1456" width="53" height="52" as="geometry" />
        </mxCell>
        <mxCell id="h0xq7Wj6VVmjifHu8aRl-12" value="" style="sketch=0;shadow=0;dashed=0;html=1;strokeColor=none;fillColor=#505050;labelPosition=center;verticalLabelPosition=bottom;verticalAlign=top;outlineConnect=0;align=center;shape=mxgraph.office.databases.web_store;textShadow=1;" vertex="1" parent="1">
          <mxGeometry x="614" y="1570" width="50" height="54" as="geometry" />
        </mxCell>
      </root>
    </mxGraphModel>
  </diagram>
</mxfile>
